<svg xmlns="http://www.w3.org/2000/svg" width="29" height="30" fill="none"><path fill="#52006A" d="M2.417 3H7.25V0H2.417C1.776 0 1.16.316.707.879.256 1.44 0 2.204 0 3v6h2.417zm24.166-3H21.75v3h4.833v6H29V3c0-.796-.255-1.559-.708-2.121S27.224 0 26.583 0M2.417 21H0v6c0 .796.255 1.559.708 2.121S1.776 30 2.417 30H7.25v-3H2.417zm24.166 6H21.75v3h4.833c.641 0 1.256-.316 1.71-.879.452-.562.707-1.325.707-2.121v-6h-2.417zM4.833 9v12c0 .796.255 1.559.708 2.121S6.61 24 7.25 24h14.5c.64 0 1.256-.316 1.709-.879s.708-1.325.708-2.121V9c0-.796-.255-1.559-.708-2.121S22.39 6 21.75 6H7.25c-.64 0-1.256.316-1.709.879S4.833 8.204 4.833 9M7.25 21v-6h14.5v6zm14.5-12v3H7.25V9z"/></svg>